# xmcd
#
# Track frame offsets:
#  150
#  3276
#  19230
#  34528
#  55380
#  68546
#  83080
#  99179
#  114857
#  132853
#  148623
#  167829
#  182177
#  194054
#  200843
#  215420
#  235375
#  259352
#  278878
#  290383
#  303589
#
# Disc length: 4325 seconds
#
# Revision: 0
# Processed by: cddbd v1.5.1PL2 Copyright (c) Steve Scherf et al.
# Submitted via: Collectorz.com_Music_Collector 6.9
#
DISCID=3410e315
DTITLE=Rhonda Vincent - Ragin' Live
DYEAR=2005
DGENRE=Bluegrass
TTITLE0=01 - Intro
TTITLE1=02 - Kentucky Borderline
TTITLE2=03 - Drivin' Nails In My Coffin
TTITLE3=04 - Missouri Moon
TTITLE4=05 - Me Too
TTITLE5=06 - One Step Ahead Of The Blues
TTITLE6=07 - Jolene
TTITLE7=08 - Heartbreakin' Old Achin' Blues
TTITLE8=09 - Road Rage
TTITLE9=10 - Cheatin' Kind Of Life
TTITLE10=11 - You Can't Take It With You When You Go
TTITLE11=12 - So Happy I'll Be
TTITLE12=13 - Son Drop In
TTITLE13=14 - The Martha White Theme
TTITLE14=15 - Frankie Bell
TTITLE15=16 - I've Forgotten You
TTITLE16=17 - Ghost Of A Chance
TTITLE17=18 - The Last Best Place
TTITLE18=19 - Bluegrass Express
TTITLE19=20 - Muleskinner Blues
TTITLE20=21 - Homecoming
EXTD=
EXTT0=
EXTT1=
EXTT2=
EXTT3=
EXTT4=
EXTT5=
EXTT6=
EXTT7=
EXTT8=
EXTT9=
EXTT10=
EXTT11=
EXTT12=
EXTT13=
EXTT14=
EXTT15=
EXTT16=
EXTT17=
EXTT18=
EXTT19=
EXTT20=
PLAYORDER=
